# xmcd
#
# Track frame offsets:
#	150
#	21094
#	36004
#	47127
#	54897
#	67507
#	81417
#	94993
#	107957
#	124038
#	136614
#	148133
#	163417
#
# Disc length: 2361 seconds
#
# Revision: 0
# Processed by: cddbd v1.5.1PL0 Copyright (c) Steve Scherf et al.
# Submitted via: dBpowerAMP V4.0
#
DISCID=ae09370d
DTITLE=Blue'S Grass - New Country Rain
DYEAR=1900
DGENRE=Country
TTITLE0=Look Around Yourself
TTITLE1=Laura's Song
TTITLE2=When The Storm is Over
TTITLE3=I'll Be no Stranger There
TTITLE4=15 Year Old Whisky
TTITLE5=Lovesick Blues
TTITLE6=Meszig Blues
TTITLE7=Soldier
TTITLE8=Dusty Wings
TTITLE9=San Francisco Bay Blues
TTITLE10=I'm not Thirsty Anymore
TTITLE11=Isle Of May
TTITLE12=New Country Rain
EXTD=
EXTT0=
EXTT1=
EXTT2=
EXTT3=
EXTT4=
EXTT5=
EXTT6=
EXTT7=
EXTT8=
EXTT9=
EXTT10=
EXTT11=
EXTT12=
PLAYORDER=
